# xmcd
#
# Track frame offsets:
#	150
#	16177
#	35605
#	53456
#	72883
#	86534
#	102350
#	122799
#	139900
#	161801
#	179836
#	190238
#	209018
#
# Disc length: 3032 seconds
#
# Revision: 0
# Processed by: cddbd v1.5.2PL0 Copyright (c) Steve Scherf et al.
# Submitted via: audiograbber 1.83.01
#
DISCID=bc0bd60d
DTITLE=John S. Rule - I'm Just a Man
DYEAR=2010
DGENRE=Alternative
TTITLE0=Without Your Love
TTITLE1=Love You Still
TTITLE2=Durrell
TTITLE3=Can't Get My Way Back to You
TTITLE4=Jezebelle
TTITLE5=High Roller
TTITLE6=I'm Just a Man
TTITLE7=Only You
TTITLE8=It's All the Same
TTITLE9=The Look on Your Face
TTITLE10=After Hours
TTITLE11=You're All I Wanna Do
TTITLE12=Will the Love Last Forever (more)
EXTD=UPC #6143460636140
EXTT0=USVQ51010001
EXTT1=USVQ51010002
EXTT2=USVQ51010003
EXTT3=USVQ51010004
EXTT4=USVQ51010005
EXTT5=USVQ51010006
EXTT6=USVQ51010007
EXTT7=USVQ51010008
EXTT8=USVQ51010009
EXTT9=USVQ51010010
EXTT10=USVQ51010011
EXTT11=USVQ51010012
EXTT12=USVQ51010013
PLAYORDER=
